<?xml version="1.0" encoding="utf-8"?>
<!-- Uploaded to: SVG Repo, www.svgrepo.com, Generator: SVG Repo Mixer Tools -->
<svg width="800px" height="800px" viewBox="0 0 1024 1024" class="icon"  version="1.1" xmlns="http://www.w3.org/2000/svg"><path d="M787.2 651.2c-28.8 59.2-38.4 123.2-27.2 188.8 3.2 17.6 19.2 28.8 36.8 27.2 17.6-3.2 28.8-19.2 27.2-36.8-8-46.4-3.2-89.6 12.8-131.2m51.2-86.4c11.2-12.8 9.6-33.6-4.8-44.8-12.8-9.6-28.8-9.6-41.6 0l-3.2 3.2m-24-19.2l3.2-3.2c22.4-24 60.8-27.2 86.4-4.8 27.2 22.4 30.4 62.4 8 89.6m-44.8 73.6c-16 38.4-19.2 76.8-12.8 116.8 6.4 35.2-17.6 67.2-52.8 73.6s-67.2-17.6-73.6-52.8c-12.8-76.8 0-148.8 35.2-217.6" fill="#050D42" /><path d="M721.6 278.4c35.2 60.8 46.4 150.4 25.6 225.6-1.6 3.2-1.6 6.4-3.2 8l-91.2-14.4c-1.6-6.4 0-12.8 1.6-20.8 11.2-43.2 8-96-6.4-132.8l73.6-65.6z" fill="#2F4BFF" /><path d="M670.4 483.2c-1.6 6.4-1.6 11.2 0 16l57.6 11.2 4.8-9.6c19.2-72 8-156.8-24-212.8l-48 48c17.6 40 22.4 99.2 9.6 147.2z m64-216c38.4 64 49.6 160 28.8 240-1.6 3.2-1.6 8-4.8 11.2-27.2-8-48-12.8-62.4-14.4-12.8-1.6-32-1.6-57.6 0-1.6-9.6-1.6-19.2 1.6-28.8 9.6-33.6 8-76.8-1.6-110.4-6.4-19.2 86.4-113.6 96-97.6z" fill="#050D42" /><path d="M240 372.8c-6.4-25.6 9.6-51.2 35.2-57.6 25.6-6.4 51.2 9.6 57.6 35.2 19.2 76.8 70.4 142.4 155.2 195.2 22.4 14.4 30.4 43.2 16 65.6-14.4 22.4-43.2 30.4-65.6 16-105.6-65.6-172.8-150.4-198.4-254.4z" fill="#2F4BFF" /><path d="M182.4 244.8c16-1.6 33.6-4.8 52.8-8 57.6-9.6 116.8-24 177.6-40 17.6-4.8 27.2-22.4 22.4-40s-22.4-27.2-40-22.4c-57.6 16-115.2 28.8-171.2 38.4-17.6 3.2-35.2 6.4-49.6 8-8 1.6-14.4 1.6-17.6 1.6-17.6 1.6-30.4 17.6-28.8 35.2 1.6 17.6 17.6 30.4 35.2 28.8 4.8 1.6 11.2 0 19.2-1.6zM96 222.4c-3.2-35.2 22.4-67.2 57.6-70.4 3.2 0 9.6-1.6 16-1.6 14.4-1.6 32-4.8 48-8 54.4-9.6 112-22.4 168-38.4 33.6-9.6 68.8 11.2 78.4 44.8 9.6 33.6-11.2 68.8-44.8 78.4-60.8 16-121.6 30.4-180.8 40-19.2 3.2-36.8 6.4-52.8 8-8 1.6-16 1.6-20.8 3.2-33.6 4.8-64-20.8-68.8-56zM657.6 580.8h8c8 0 14.4 1.6 22.4 3.2 25.6 4.8 48 12.8 70.4 24 30.4 16 52.8 38.4 70.4 65.6 9.6 16 28.8 20.8 43.2 11.2s20.8-28.8 11.2-43.2c-22.4-38.4-54.4-68.8-94.4-89.6-27.2-14.4-57.6-24-89.6-30.4-16-3.2-30.4-4.8-41.6-4.8-17.6 0-32 14.4-32 32s14.4 32 32 32z m0 32c-35.2 0-64-28.8-64-64s28.8-64 64-64c12.8 0 28.8 1.6 48 4.8 35.2 6.4 67.2 17.6 97.6 33.6 44.8 24 81.6 57.6 107.2 102.4 17.6 30.4 8 70.4-22.4 88-30.4 17.6-70.4 8-88-22.4-12.8-22.4-32-40-57.6-54.4-17.6-9.6-38.4-16-60.8-20.8-6.4-1.6-14.4-1.6-19.2-3.2h-4.8zM448 614.4c14.4 9.6 35.2 4.8 44.8-11.2s4.8-35.2-11.2-44.8c-89.6-54.4-142.4-121.6-163.2-204.8-4.8-17.6-20.8-27.2-38.4-24-17.6 6.4-27.2 22.4-24 40 24 99.2 88 180.8 192 244.8zM272 299.2c33.6-8 68.8 12.8 76.8 46.4 17.6 73.6 67.2 134.4 148.8 185.6 30.4 19.2 40 57.6 20.8 88s-57.6 40-88 20.8C320 572.8 249.6 483.2 224 376c-8-33.6 14.4-67.2 48-76.8zM171.2 683.2c91.2 0 208 35.2 275.2 89.6 14.4 11.2 33.6 9.6 44.8-4.8 11.2-14.4 9.6-33.6-4.8-44.8-80-64-209.6-104-315.2-104-17.6 0-32 14.4-32 32s14.4 32 32 32z m0 32c-35.2 0-64-28.8-64-64s28.8-64 64-64c113.6 0 249.6 41.6 336 110.4 27.2 22.4 32 62.4 9.6 89.6-22.4 27.2-62.4 32-89.6 9.6-60.8-48-171.2-81.6-256-81.6zM840 216c17.6-1.6 30.4-17.6 28.8-35.2S849.6 150.4 832 153.6c-104 11.2-192 65.6-257.6 161.6-9.6 14.4-6.4 35.2 8 44.8 14.4 9.6 35.2 6.4 44.8-8 56-81.6 126.4-126.4 212.8-136zM564.8 385.6c-28.8-20.8-36.8-59.2-16-89.6 72-104 166.4-163.2 281.6-176 35.2-3.2 67.2 22.4 70.4 57.6 3.2 35.2-22.4 67.2-57.6 70.4-76.8 8-137.6 46.4-188.8 120-20.8 30.4-60.8 38.4-89.6 17.6z" fill="#050D42" /><path d="M462.4 880a48.592 48.592 0 0 1-92.8-28.8c33.6-110.4 107.2-187.2 214.4-227.2 25.6-9.6 52.8 3.2 62.4 28.8s-3.2 52.8-28.8 62.4c-80 28.8-131.2 83.2-155.2 164.8z" fill="#2F4BFF" /><path d="M446.4 875.2c27.2-86.4 81.6-144 166.4-176 16-6.4 25.6-24 19.2-41.6-6.4-16-24-25.6-41.6-19.2-104 38.4-172.8 112-204.8 216-4.8 17.6 4.8 35.2 20.8 40 17.6 6.4 35.2-3.2 40-19.2z m30.4 9.6c-11.2 33.6-46.4 52.8-80 41.6s-52.8-46.4-41.6-80c35.2-115.2 112-195.2 224-236.8 33.6-12.8 70.4 4.8 81.6 38.4 12.8 33.6-4.8 70.4-38.4 81.6-73.6 27.2-121.6 78.4-145.6 155.2zM425.6 497.6c8-75.2 32-161.6 65.6-209.6 9.6-14.4 6.4-35.2-8-44.8-14.4-9.6-35.2-6.4-44.8 8-30.4 44.8-54.4 113.6-67.2 182.4l54.4 64z m75.2-280c28.8 19.2 36.8 59.2 17.6 89.6-32 48-57.6 142.4-60.8 216 0 6.4-14.4-19.2-44.8-49.6-25.6-27.2-70.4-56-62.4-84.8 14.4-59.2 36.8-113.6 62.4-153.6 19.2-30.4 59.2-38.4 88-17.6z" fill="#050D42" /></svg>